<svg width="300.906" height="300.906" xmlns="http://www.w3.org/2000/svg">

 <g>
  <title>background</title>
  <rect fill="none" id="canvas_background" height="402" width="582" y="-1" x="-1"/>
 </g>
 <g>
  <title>Layer 1</title>
  <g id="svg_1">
   <g id="svg_2">
    <path stroke="#fff" fill="#ffffff" id="svg_3" d="m288.953,0l-277,0c-5.522,0 -10,4.478 -10,10l0,49.531c0,5.522 4.478,10 10,10l12.372,0l91.378,107.397l0,113.978c0,3.688 2.03,7.076 5.281,8.816c1.479,0.792 3.101,1.184 4.718,1.184c1.94,0 3.875,-0.564 5.548,-1.68l49.5,-33c2.782,-1.854 4.453,-4.977 4.453,-8.32l0,-80.978l91.378,-107.397l12.372,0c5.522,0 10,-4.478 10,-10l0,-49.531c0,-5.522 -4.477,-10 -10,-10zm-121.366,166.77c-1.539,1.809 -2.384,4.105 -2.384,6.48l0,79.305l-29.5,19.666l0,-98.971c0,-2.375 -0.845,-4.672 -2.384,-6.48l-82.734,-97.239l199.736,0l-82.734,97.239zm111.366,-117.239l-257,0l0,-29.531l257,0l0,29.531z"/>
   </g>
  </g>
  <g id="svg_4"/>
  <g id="svg_5"/>
  <g id="svg_6"/>
  <g id="svg_7"/>
  <g id="svg_8"/>
  <g id="svg_9"/>
  <g id="svg_10"/>
  <g id="svg_11"/>
  <g id="svg_12"/>
  <g id="svg_13"/>
  <g id="svg_14"/>
  <g id="svg_15"/>
  <g id="svg_16"/>
  <g id="svg_17"/>
  <g id="svg_18"/>
 </g>
</svg>